<svg width="145" height="40" viewBox="0 0 145 40" fill="none" xmlns="http://www.w3.org/2000/svg">
<path d="M35.8921 13.6846H27.4866V39.0442H35.8921V13.6846Z" fill="#FF5C57"/>
<path d="M14.6023 12.9483C12.0049 12.9483 9.91889 13.7664 8.4055 15.4025V1.65918H0V39.0238H8.4055V25.1373C8.4055 23.7057 8.75317 22.5604 9.42806 21.7424C10.103 20.9243 10.9824 20.5358 12.1072 20.5358C14.3364 20.5358 15.3794 21.8242 15.3794 24.5647V39.0238H23.7849V22.7854C23.7849 19.595 22.8851 17.1409 21.1058 15.4638C19.3265 13.8073 17.1382 12.9483 14.6023 12.9483Z" fill="#FF5C57"/>
<path d="M35.8921 13.6846H27.4866V39.0442H35.8921V13.6846Z" fill="#FF5C57"/>
<path d="M36.358 6.48167C36.8557 3.89732 35.1641 1.39885 32.5798 0.901194C29.9954 0.403535 27.4969 2.09513 26.9993 4.67949C26.5016 7.26384 28.1932 9.76232 30.7776 10.26C33.3619 10.7576 35.8604 9.06603 36.358 6.48167Z" fill="#FF5C57"/>
<path d="M64.299 13.6845H54.4005L48.2242 21.9468V1.63867H39.8187V39.0237H48.2242V30.1069L54.2778 39.0237H64.8512L54.4823 25.8326L64.299 13.6845Z" fill="#FF5C57"/>
<path d="M100.641 15.464C98.8413 13.787 96.6735 12.9485 94.1988 12.9485C92.6036 12.9485 91.1312 13.2962 89.8632 14.012C88.7997 14.605 87.9407 15.4027 87.3272 16.3843C86.6523 15.4027 85.7729 14.605 84.689 14.012C83.4005 13.3166 81.9894 12.9485 80.5169 12.9485C77.94 12.9485 75.854 13.8483 74.2793 15.6276V13.6643H66.4055V39.0239H74.811V25.0966C74.811 23.6241 75.0973 22.4993 75.6904 21.7221C76.2426 20.9859 76.9993 20.6177 77.9809 20.6177C80.4351 20.6177 80.7214 22.7651 80.7214 24.3603V39.0035H89.1269V24.8307C89.1269 23.5014 89.4132 22.4379 89.9859 21.6812C90.5381 20.9654 91.2948 20.5973 92.3173 20.5973C94.7306 20.5973 95.0169 22.7447 95.0169 24.3399V38.983H103.422V22.7447C103.361 19.6156 102.441 17.141 100.641 15.464Z" fill="#FF5C57"/>
<path d="M119.783 32.7045C118.331 32.7045 117.166 32.1523 116.225 30.9866C115.264 29.8208 114.793 28.2665 114.793 26.3646C114.793 24.5239 115.284 23.0105 116.225 21.8857C117.166 20.7609 118.331 20.2087 119.783 20.2087C121.256 20.2087 122.442 20.7609 123.383 21.9062C124.344 23.0515 124.815 24.5444 124.815 26.3646C124.815 28.2665 124.324 29.8208 123.383 30.9866C122.442 32.1318 121.276 32.7045 119.783 32.7045ZM124.303 15.0141C122.606 13.6438 120.499 12.9485 118.004 12.9485C114.589 12.9485 111.746 14.2165 109.558 16.7115C107.39 19.2066 106.286 22.4379 106.286 26.3441C106.286 30.3117 107.39 33.5634 109.537 36.0176C111.705 38.4922 114.548 39.7397 117.943 39.7397C120.642 39.7397 122.892 38.9012 124.671 37.2242V39.0239H132.688V13.6643H124.283V15.0141H124.303Z" fill="#FF5C57"/>
<path d="M145 34.9541C145 37.5719 142.873 39.7193 140.235 39.7193C137.597 39.7193 135.47 37.5923 135.47 34.9541C135.47 32.3364 137.597 30.189 140.235 30.189C142.853 30.189 145 32.3364 145 34.9541Z" fill="#FF5C57"/>
</svg>
